<svg width="48" height="48" viewBox="0 0 48 48" fill="none" xmlns="http://www.w3.org/2000/svg">
<rect width="48" height="48" rx="6" fill="#FF6D00" fill-opacity="0.1"/>
<path d="M19.0613 19.2912V16.1519C19.0613 14.7595 20.2005 13.6203 21.593 13.6203C22.9854 13.6203 24.1246 14.7595 24.1246 16.1519V19.2658C25.0613 18.5317 25.6689 17.3671 25.6689 16.076C25.6689 13.8228 23.8461 12 21.593 12C19.3396 12 17.4915 13.8228 17.4915 16.076C17.4915 17.3671 18.0992 18.5317 19.0613 19.2912Z" fill="#FF6D00"/>
<path d="M30.9348 22.8103C29.9981 22.6837 29.2134 23.4179 29.2134 24.3294V23.5698C29.2134 22.785 28.6564 22.1015 27.8968 22.0002C26.9602 21.8736 26.1754 22.6079 26.1754 23.5193V22.7598C26.1754 21.975 25.6184 21.2914 24.8589 21.1902C23.9222 21.0636 23.1374 21.7978 23.1374 22.7093L23.1373 16.1518C23.1373 15.3164 22.4537 14.6327 21.6182 14.6327C20.7827 14.6327 20.0991 15.3163 20.0991 16.1518V27.8987C20.0991 28.076 19.8713 28.1266 19.7699 27.9747C19.213 27.0126 18.5294 25.6708 18.5294 25.6455C18.1749 24.9115 17.2635 24.6075 16.5294 24.962C15.7953 25.3164 15.4914 26.2278 15.8458 26.9619C15.8965 27.0378 17.2128 29.6961 18.4535 31.4682C20.0484 33.7214 21.4155 34.7847 22.0991 35.2405C22.7827 35.7215 23.4916 36 23.9219 36H27.7953C28.4789 36 29.0865 35.6708 29.4916 35.0886L30.2004 34.0506C31.5674 32.0759 32.3017 29.6454 32.3017 27.1645L32.3021 24.3797C32.2514 23.5949 31.6944 22.9113 30.9349 22.8101L30.9348 22.8103Z" fill="#FF6D00"/>
</svg>
