<svg width="48" height="48" viewBox="0 0 48 48" fill="none" xmlns="http://www.w3.org/2000/svg">
<rect width="48" height="48" rx="6" fill="#FF6D00" fill-opacity="0.1"/>
<path d="M27.7754 12.0372C28.1952 12.0577 28.2412 12.198 28.177 12.6223C27.6173 16.2629 27.6581 20.4003 28.4883 24.0332L27.2052 24.0352C26.8838 24.0373 26.9111 24.0059 26.858 23.8158C26.7274 23.348 26.5656 22.8358 26.227 22.6009C25.8935 22.368 25.5195 22.2501 25.1856 22.3216L21.1076 23.1965C20.095 20.6682 19.36 18.0209 19.1904 14.8053C19.1597 14.213 19.1683 13.9651 19.5999 13.6587C22.118 12.076 25.0765 11.9007 27.7754 12.0372L27.7754 12.0372Z" fill="#FF6D00"/>
<path d="M31.6697 14.3303C31.9924 14.4459 31.9281 14.5325 31.8157 14.7864C30.509 17.7631 30.0291 21.0677 29.5413 24.0306L29.0715 24.0327C28.4397 20.9226 28.2479 17.1056 28.5151 14.0209C29.5768 13.8636 30.6503 13.9627 31.6697 14.3301V14.3303Z" fill="#FF6D00"/>
<path d="M31.591 16.8176C32.3005 16.9045 32.9926 17.2699 33.4913 17.7459C33.6699 17.92 33.5762 18.0164 33.5079 18.0765C32.4381 19.0092 31.497 20.3591 30.6792 21.8572H30.364C30.6946 19.9342 31.149 18.2449 31.5909 16.8176L31.591 16.8176Z" fill="#FF6D00"/>
<path d="M25.2471 22.8915C25.8597 22.7786 26.2202 23.2992 26.2747 23.7738L26.8169 28.5664C26.8169 28.9327 26.5942 29.2815 26.2011 29.4827C25.8082 29.6816 25.308 29.6816 24.9168 29.4839C24.5472 29.2971 24.418 28.9478 24.2974 28.4973L23.639 25.8191C23.542 25.4262 23.1337 25.4617 23.2052 25.8499L23.9502 29.8091C24.1204 30.7139 23.0334 32.1412 20.9113 31.8112C20.5118 31.7193 20.5781 32.2978 20.9878 32.3319C22.3251 32.5413 23.2692 32.0735 23.9023 31.4456C23.8941 31.8264 23.998 32.2092 24.1645 32.5359C24.2972 32.7964 24.4879 33.0119 24.7139 33.17C24.4881 33.3287 24.2956 33.5434 24.1615 33.8047C23.8738 34.3629 23.8656 35.0449 24.1594 35.598C24.28 35.8277 24.3434 35.9997 24.0846 35.9997L20.6868 35.9977C20.2719 35.9956 20.0252 35.8968 19.8241 35.7354C19.6239 35.5761 19.4666 35.3411 19.3073 35.0615C19.2564 34.973 19.1607 34.9184 19.0583 34.9184H18.5602C18.1895 34.9184 18.162 34.747 18.2163 34.4398C18.6675 31.9142 18.7948 29.6205 18.1894 27.1872C18.099 26.8286 18.1111 26.8185 18.3439 26.5513L20.1526 24.4677C20.583 23.9718 20.9283 23.6886 21.7316 23.5399L25.2471 22.8915Z" fill="#FF6D00"/>
<path d="M30.7846 24.603C31.1572 24.603 31.5075 24.8218 31.7064 25.2096C31.9053 25.598 31.9041 26.0893 31.7051 26.4773C31.5807 26.7191 31.4021 26.9592 31.0364 26.9606L27.2117 26.974L26.9445 24.6071L30.7846 24.603Z" fill="#FF6D00"/>
<path d="M14.462 26.4724C15.4829 29.5929 15.2633 32.3269 14.4741 35.7041C14.404 36.0027 14.5385 36 14.7192 36H16.863C17.2237 36 17.2491 35.984 17.3121 35.7074C18.0706 32.4134 18.2851 29.7442 17.3837 26.7177C17.2163 26.1562 17.1144 26.187 16.516 26.187H14.6698C14.3275 26.1868 14.3905 26.2518 14.4621 26.4725L14.462 26.4724Z" fill="#FF6D00"/>
<path d="M30.3147 27.536C30.6873 27.534 31.0397 27.7554 31.2365 28.1426C31.4355 28.5306 31.4355 29.0208 31.2353 29.411C31.0343 29.8 30.6822 30.0401 30.3115 30.0235L27.1469 29.873C27.0123 29.8679 26.9643 29.6593 27.041 29.5258C27.2164 29.2233 27.4307 28.9192 27.3899 28.5661L27.2754 27.5408L30.3147 27.536Z" fill="#FF6D00"/>
<path d="M25.5191 30.3682C26.999 30.4306 28.4804 30.5335 29.9608 30.5973C30.3322 30.6145 30.6843 30.8167 30.8832 31.2051C31.0821 31.5925 31.0805 32.0824 30.8793 32.4728C30.6804 32.8619 30.325 33.0827 29.9542 33.0845L25.6314 32.8827C25.6193 32.8827 25.6092 32.8807 25.5971 32.8827C25.2245 32.8827 24.8722 32.6633 24.6753 32.2756C24.466 31.8673 24.4049 31.3429 24.5917 30.9803C24.7924 30.5909 25.1466 30.3533 25.519 30.3682L25.5191 30.3682Z" fill="#FF6D00"/>
<path d="M25.5968 33.4546L29.7277 33.6467C29.8842 33.7507 30.0218 33.8969 30.1206 34.0893C30.3179 34.4767 30.3179 34.9702 30.1173 35.3583C29.9184 35.7473 29.5559 35.9654 29.2343 35.9654L25.7281 35.9743C25.2648 35.9755 24.8465 35.6745 24.6697 35.3357C24.4675 34.9495 24.4708 34.4568 24.6718 34.0667C24.8721 33.6777 25.2242 33.4566 25.5968 33.4546L25.5968 33.4546Z" fill="#FF6D00"/>
</svg>
