<svg width="163" height="60" viewBox="0 0 163 60" fill="none" xmlns="http://www.w3.org/2000/svg">
<path d="M2.77843 60L9.98489 26.5832H0.90332L6.54658 0H30.8065C36.3637 0 40.6894 1.71557 43.3174 4.96027C45.7536 7.96833 46.5191 12.0215 45.5278 16.6788L45.5027 16.7971C43.425 26.5725 34.8938 32.8915 23.7668 32.8915H19.027L2.77843 60ZM5.77395 22.6376H14.8734L11.67 37.4933L16.7934 28.9459H23.7686C32.9541 28.9459 39.9705 23.8548 41.6449 15.9761L41.67 15.8578C42.4032 12.4051 41.9138 9.49567 40.252 7.44488C38.3984 5.15566 35.1322 3.94741 30.8065 3.94741H9.74288L5.77395 22.6376ZM25.7817 24.7977H19.278L23.0659 18.4768H17.4818L19.6634 8.21034H28.2914C32.1994 8.21034 34.1785 9.64266 35.1501 10.8437C36.0178 11.9157 36.9177 13.8285 36.2741 16.8563L36.249 16.9728C35.2541 21.6534 31.0485 24.7977 25.7817 24.7977ZM22.3542 14.5312H30.0303L26.2496 20.8396C29.4262 20.6782 31.8122 18.8748 32.3912 16.1518L32.4163 16.0335C32.6727 14.8234 32.5615 13.9128 32.0865 13.3248C31.4752 12.5701 30.1289 12.1542 28.2932 12.1542H22.8615L22.3542 14.5312Z" fill="#FF6D00"/>
<path d="M60.8927 33.3791C59.0552 33.3791 57.406 33.0743 55.9414 32.463C54.4768 31.8535 53.2363 31.0092 52.218 29.93C51.198 28.8526 50.4164 27.6175 49.8715 26.2264C49.3265 24.8353 49.054 23.3743 49.054 21.8416C49.054 20.282 49.3265 18.8048 49.8715 17.4137C50.4164 16.0226 51.198 14.7893 52.218 13.7101C53.2363 12.6327 54.4786 11.7884 55.9414 11.1771C57.4042 10.5676 59.0552 10.261 60.8927 10.261C62.7284 10.261 64.3722 10.5658 65.8225 11.1771C67.2709 11.7884 68.5132 12.6327 69.5458 13.7101C70.5784 14.7893 71.36 16.0226 71.8924 17.4137C72.423 18.8048 72.6883 20.2802 72.6883 21.8416C72.6883 23.3743 72.423 24.8353 71.8924 26.2264C71.3618 27.6175 70.5855 28.8508 69.5673 29.93C68.5491 31.0092 67.3068 31.8535 65.844 32.463C64.3794 33.0743 62.7284 33.3791 60.8927 33.3791ZM54.9949 21.8416C54.9949 23.1377 55.253 24.2832 55.7693 25.2835C56.2856 26.2838 56.9883 27.0654 57.8792 27.6282C58.7684 28.1911 59.7741 28.4726 60.8927 28.4726C61.9826 28.4726 62.9721 28.184 63.8631 27.6067C64.7523 27.0295 65.4621 26.2425 65.9946 25.2422C66.5252 24.2437 66.7905 23.0964 66.7905 21.8003C66.7905 20.5329 66.5252 19.3928 65.9946 18.38C65.4639 17.3671 64.7523 16.5783 63.8631 16.0155C62.9739 15.4526 61.9826 15.1711 60.8927 15.1711C59.7741 15.1711 58.7684 15.4597 57.8792 16.037C56.9901 16.6142 56.2874 17.403 55.7693 18.4015C55.253 19.4 54.9949 20.5473 54.9949 21.8416Z" fill="white"/>
<path d="M75.1837 21.8003C75.1837 19.6438 75.6139 17.6934 76.4744 15.9473C77.3349 14.2013 78.5252 12.8192 80.0472 11.7956C81.5673 10.7738 83.3044 10.2629 85.2566 10.2629C86.9202 10.2629 88.4206 10.6716 89.7544 11.489C91.0881 12.3065 92.1296 13.348 92.8754 14.61V1.52368H98.6441V26.4917C98.6441 27.094 98.7445 27.5243 98.9453 27.7824C99.1461 28.0406 99.4903 28.1983 99.9779 28.2557V32.9488C98.9722 33.1496 98.1547 33.25 97.5237 33.25C96.4911 33.25 95.6361 32.9919 94.962 32.4756C94.288 31.9593 93.9079 31.2853 93.8219 30.4517L93.7358 29.0301C92.9041 30.4373 91.7765 31.5129 90.3567 32.2587C88.9351 33.0044 87.4508 33.3773 85.902 33.3773C84.3531 33.3773 82.9244 33.0797 81.6175 32.4827C80.3107 31.8876 79.1777 31.0648 78.2169 30.0143C77.2542 28.9638 76.5085 27.7376 75.9779 26.3322C75.449 24.9303 75.1837 23.4191 75.1837 21.8003ZM92.8772 24.7564V19.4789C92.5903 18.6614 92.1314 17.93 91.5004 17.2829C90.8694 16.6357 90.1649 16.1212 89.3905 15.7412C88.616 15.3611 87.8416 15.1711 87.0654 15.1711C86.1762 15.1711 85.3713 15.354 84.6543 15.7197C83.9372 16.0854 83.3116 16.5784 82.781 17.1986C82.2503 17.8189 81.8488 18.5359 81.5763 19.3534C81.3038 20.1708 81.1676 21.0277 81.1676 21.9294C81.1676 22.8311 81.3182 23.6826 81.6193 24.4839C81.9205 25.2871 82.3579 25.9826 82.9316 26.5742C83.5052 27.1658 84.1721 27.63 84.9339 27.9671C85.694 28.3041 86.5186 28.4744 87.4096 28.4744C87.9546 28.4744 88.5067 28.383 89.0678 28.2001C89.6271 28.0173 90.1577 27.7645 90.6597 27.44C91.1616 27.1173 91.6062 26.723 91.9934 26.2569C92.3824 25.7908 92.6764 25.2924 92.8772 24.7564Z" fill="white"/>
<path d="M102.778 26.3609C102.778 24.9142 103.187 23.6468 104.004 22.5551C104.822 21.4634 105.963 20.619 107.426 20.0239C108.891 19.4287 110.569 19.1311 112.464 19.1311C113.41 19.1311 114.373 19.2028 115.348 19.3462C116.323 19.4897 117.171 19.7191 117.888 20.0346V18.8353C117.888 17.4263 117.465 16.3418 116.619 15.5799C115.773 14.8198 114.516 14.438 112.853 14.438C111.617 14.438 110.441 14.6531 109.323 15.0833C108.204 15.5135 107.026 16.1446 105.793 16.9781L103.941 13.1903C105.433 12.2151 106.962 11.4837 108.525 10.9943C110.088 10.5067 111.732 10.2629 113.455 10.2629C116.669 10.2629 119.173 11.0552 120.966 12.6399C122.759 14.2246 123.657 16.487 123.657 19.4287V26.5168C123.657 27.112 123.764 27.5351 123.98 27.7896C124.195 28.0442 124.546 28.2001 125.034 28.2557V32.9489C124.517 33.0349 124.049 33.1066 123.635 33.164C123.219 33.2213 122.866 33.25 122.581 33.25C121.434 33.25 120.565 32.9919 119.977 32.4756C119.389 31.9593 119.023 31.3283 118.879 30.5808L118.75 29.4191C117.773 30.683 116.554 31.6582 115.092 32.3465C113.629 33.0349 112.136 33.3791 110.615 33.3791C109.122 33.3791 107.781 33.0744 106.591 32.4649C105.399 31.8554 104.467 31.0182 103.793 29.9551C103.115 28.8921 102.778 27.6946 102.778 26.3609ZM116.811 27.4831C117.126 27.1479 117.384 26.8126 117.585 26.4756C117.786 26.1404 117.886 25.832 117.886 25.5524V23.3277C117.198 23.0481 116.45 22.8311 115.647 22.677C114.844 22.5228 114.082 22.4457 113.365 22.4457C111.872 22.4457 110.646 22.7612 109.685 23.3905C108.722 24.0197 108.244 24.8533 108.244 25.8876C108.244 26.4469 108.401 26.9793 108.717 27.4831C109.032 27.9868 109.491 28.392 110.095 28.7003C110.698 29.0086 111.415 29.161 112.248 29.161C113.109 29.161 113.955 28.9997 114.789 28.6788C115.62 28.3579 116.294 27.9581 116.811 27.4831Z" fill="white"/>
<path d="M141.865 33.3791C140.144 33.3791 138.608 32.9919 137.26 32.2174C135.91 31.443 134.848 30.3818 134.074 29.0319V32.9488H129.037V1.52368H134.805V14.61C135.609 13.262 136.663 12.1989 137.969 11.4245C139.275 10.6501 140.804 10.2629 142.553 10.2629C144.018 10.2629 145.352 10.5676 146.556 11.1789C147.761 11.7902 148.801 12.6345 149.677 13.7119C150.552 14.7911 151.226 16.0244 151.701 17.4155C152.174 18.8066 152.411 20.2963 152.411 21.8846C152.411 23.4747 152.146 24.9644 151.615 26.3555C151.083 27.7466 150.344 28.9745 149.398 30.0376C148.451 31.1024 147.338 31.9252 146.061 32.5061C144.785 33.0887 143.385 33.3791 141.865 33.3791ZM140.271 28.4726C141.189 28.4726 142.028 28.2969 142.79 27.9438C143.55 27.5924 144.211 27.1209 144.771 26.5294C145.33 25.9396 145.76 25.2422 146.061 24.4391C146.363 23.636 146.513 22.7989 146.513 21.9258C146.513 20.7158 146.262 19.5972 145.76 18.5682C145.258 17.541 144.57 16.7164 143.693 16.0979C142.817 15.4795 141.791 15.1693 140.615 15.1693C139.784 15.1693 138.986 15.3594 138.226 15.7394C137.466 16.1194 136.79 16.6339 136.202 17.2811C135.614 17.9282 135.148 18.6614 134.804 19.4771V24.7546C134.976 25.3175 135.255 25.8248 135.643 26.2748C136.03 26.7248 136.482 27.112 136.998 27.4364C137.514 27.7609 138.052 28.0137 138.613 28.1965C139.174 28.3794 139.726 28.4726 140.271 28.4726Z" fill="white"/>
<path d="M156.328 7.24941V1.52368H162.097V7.24941H156.328ZM156.328 32.9488V10.3919H162.097V32.9488H156.328Z" fill="white"/>
</svg>
